<svg width="279" height="279" viewBox="0 0 279 279" fill="none" xmlns="http://www.w3.org/2000/svg">
<rect width="279" height="279" rx="20" fill="#171717"/>
<path d="M239.247 139.274C239.247 184.713 202.421 221.548 156.994 221.548C111.567 221.548 74.7416 184.713 74.7416 139.274C74.7416 93.8354 111.567 57 156.994 57C202.421 57 239.247 93.8354 239.247 139.274Z" fill="white"/>
<path d="M211.829 138.931C211.829 169.034 187.432 193.438 157.337 193.438C127.242 193.438 102.845 169.034 102.845 138.931C102.845 108.828 127.242 84.4247 157.337 84.4247C187.432 84.4247 211.829 108.828 211.829 138.931Z" fill="#171717"/>
<path d="M153.215 118.92C145.535 120.705 140.026 126.06 137.854 134.13C134.285 147.478 144.138 161.214 157.25 161.214C163.146 161.214 166.094 160.127 172.068 155.549C182.542 147.711 191.464 144.762 203.101 145.305C211.558 145.693 216.833 147.168 223.195 151.048C231.574 156.247 235.143 156.635 241.582 153.376C248.564 149.884 252.056 140.494 248.875 133.82C244.918 125.439 236.694 122.49 229.091 126.681C216.368 133.587 210.316 135.217 199.067 134.596C195.265 134.441 191.541 134.053 190.688 133.82C189.834 133.587 188.128 133.122 186.809 132.811C182.774 131.802 177.887 128.776 172.068 123.576C166.948 118.998 160.198 117.368 153.215 118.92Z" fill="#171717"/>
<path fill-rule="evenodd" clip-rule="evenodd" d="M152 113.572L151.975 113.578C142.243 115.839 135.235 122.762 132.559 132.705L132.557 132.713C128.16 149.158 140.144 166.699 157.25 166.699C160.552 166.699 163.498 166.396 166.577 165.226C169.547 164.097 172.277 162.297 175.377 159.922C184.956 152.76 192.645 150.308 202.845 150.784L202.85 150.784C210.531 151.137 214.878 152.402 220.323 155.72C224.589 158.366 228.438 160.332 232.443 160.827C236.738 161.359 240.398 160.121 244.047 158.276C248.945 155.821 252.418 151.43 254.178 146.706C255.932 141.997 256.179 136.408 253.83 131.471C251.328 126.175 247.272 122.199 242.208 120.375C237.109 118.539 231.522 119.084 226.462 121.867C220.219 125.256 215.988 127.136 212.124 128.159C208.353 129.156 204.646 129.411 199.369 129.119L199.33 129.117L199.29 129.116C197.494 129.042 195.713 128.914 194.297 128.777C193.587 128.709 192.997 128.642 192.558 128.582C192.21 128.535 192.06 128.506 192.044 128.505C191.188 128.271 189.482 127.807 188.107 127.482C185.38 126.79 181.313 124.482 175.723 119.487M186.809 132.811C188.128 133.122 189.834 133.587 190.688 133.82C191.541 134.053 195.265 134.441 199.067 134.596C210.316 135.217 216.368 133.587 229.091 126.681C236.694 122.49 244.918 125.439 248.875 133.82C252.056 140.494 248.564 149.884 241.582 153.376C235.143 156.635 231.574 156.247 223.195 151.048C216.833 147.168 211.558 145.693 203.101 145.305C191.464 144.762 182.542 147.711 172.068 155.549C166.094 160.127 163.146 161.214 157.25 161.214C144.138 161.214 134.285 147.478 137.854 134.13C140.026 126.06 145.535 120.705 153.215 118.92C160.198 117.368 166.948 118.998 172.068 123.576C177.887 128.776 182.774 131.802 186.809 132.811ZM152 113.572L152.026 113.566ZM152.026 113.566C160.612 111.657 169.195 113.652 175.721 119.486Z" fill="white"/>
<path d="M42.204 162.302C36.1443 163.558 31.7984 167.326 30.0846 173.006C27.2689 182.4 35.0425 192.067 45.3869 192.067C50.0388 192.067 52.3648 191.302 57.0779 188.08C65.3411 182.564 72.3802 180.488 81.5616 180.871C88.2334 181.144 92.3956 182.181 97.4148 184.912C104.025 188.571 106.841 188.844 111.921 186.551C117.43 184.093 120.185 177.484 117.675 172.788C114.553 166.889 108.065 164.814 102.067 167.763C92.0284 172.624 87.2541 173.771 78.3787 173.334C75.3795 173.224 72.4414 172.951 71.7681 172.788C71.0948 172.624 69.7482 172.296 68.7076 172.078C65.5248 171.368 61.6686 169.238 57.0779 165.578C53.0381 162.356 47.7129 161.209 42.204 162.302Z" fill="#171717"/>
<path fill-rule="evenodd" clip-rule="evenodd" d="M41.1145 156.926L41.0913 156.931C33.2328 158.56 27.1781 163.656 24.835 171.421L24.8335 171.426L24.8321 171.431C20.833 184.773 31.8303 197.552 45.3869 197.552C48.0237 197.552 50.4304 197.337 52.9694 196.476C55.4241 195.644 57.6657 194.32 60.146 192.626C67.5163 187.711 73.4184 186.021 81.3335 186.351L81.3374 186.351C87.3277 186.596 90.6368 187.471 94.7781 189.721C98.1797 191.603 101.335 193.051 104.641 193.416C108.186 193.807 111.204 192.891 114.167 191.554C121.911 188.091 126.835 178.311 122.517 170.213C117.996 161.681 108.291 158.601 99.664 162.833C94.7647 165.204 91.493 166.497 88.5273 167.197C85.6368 167.879 82.7774 168.059 78.6483 167.855L78.6133 167.854L78.5782 167.852C77.1715 167.801 75.7769 167.711 74.6698 167.616C74.1152 167.569 73.657 167.522 73.3204 167.481C73.1086 167.456 72.9984 167.439 72.9636 167.434C72.2799 167.267 70.9526 166.946 69.8733 166.718C67.8955 166.269 64.8287 164.743 60.4967 161.29M68.7076 172.078C69.7482 172.296 71.0948 172.624 71.7681 172.788C72.4414 172.951 75.3795 173.224 78.3787 173.334C87.2541 173.771 92.0284 172.624 102.067 167.763C108.065 164.814 114.553 166.889 117.675 172.788C120.185 177.484 117.43 184.093 111.921 186.551C106.841 188.844 104.025 188.571 97.4148 184.912C92.3956 182.181 88.2334 181.144 81.5616 180.871C72.3802 180.488 65.3411 182.564 57.0779 188.08C52.3648 191.302 50.0388 192.067 45.3869 192.067C35.0425 192.067 27.2689 182.4 30.0846 173.006C31.7984 167.326 36.1443 163.558 42.204 162.302C47.7129 161.209 53.0381 162.356 57.0779 165.578C61.6686 169.238 65.5248 171.368 68.7076 172.078ZM60.4952 161.289C55.0516 156.948 48.0409 155.553 41.1378 156.921L41.1145 156.926" fill="white"/>
<path d="M113.831 95.7144C118.073 96.7136 121.115 99.7112 122.315 104.229C124.286 111.702 118.844 119.391 111.603 119.391C108.347 119.391 106.719 118.783 103.42 116.22C97.6354 111.832 92.708 110.181 86.281 110.485C81.6108 110.702 78.6972 111.528 75.1838 113.7C70.5564 116.611 68.5854 116.828 65.0292 115.003C61.173 113.048 59.2449 107.792 61.0016 104.056C63.1868 99.3636 67.7285 97.7128 71.9275 100.059C78.9543 103.925 82.2963 104.838 88.5091 104.49C90.6085 104.403 92.6652 104.186 93.1365 104.056C93.6078 103.925 94.5504 103.665 95.2788 103.491C97.5068 102.926 100.206 101.232 103.42 98.321C106.248 95.7578 109.975 94.8455 113.831 95.7144Z" fill="#171717"/>
<path fill-rule="evenodd" clip-rule="evenodd" d="M115.062 90.3694L115.088 90.3755C121.41 91.8646 125.925 96.4594 127.615 102.821L127.617 102.83C130.378 113.299 122.924 124.876 111.603 124.876C109.615 124.876 107.65 124.692 105.557 123.885C103.578 123.123 101.845 121.94 100.082 120.572C95.1929 116.868 91.5086 115.729 86.5402 115.964L86.5358 115.964C82.6533 116.145 80.6763 116.755 78.0837 118.355C75.6945 119.857 73.1764 121.22 70.3869 121.57C67.2994 121.957 64.7463 121.021 62.5375 119.889C59.1971 118.191 56.9093 115.207 55.7638 112.09C54.6225 108.985 54.4152 105.182 56.0356 101.729C57.6397 98.291 60.3212 95.5464 63.8291 94.2656C67.3806 92.9688 71.2168 93.3851 74.5841 95.2605C77.9786 97.1277 80.1046 98.0636 81.9437 98.5568C83.687 99.0244 85.4496 99.1676 88.2029 99.0136L88.2426 99.0114L88.2824 99.0098C89.2266 98.9707 90.1638 98.9019 90.9014 98.83C91.2713 98.7939 91.5637 98.7597 91.7647 98.7322C91.8004 98.7273 91.8303 98.723 91.8548 98.7193C92.3531 98.5818 93.2242 98.3436 93.9576 98.1673C94.8757 97.9255 96.7549 96.958 99.7376 94.2566C103.969 90.421 109.549 89.127 115.036 90.3635L115.062 90.3694ZM103.42 98.321C100.206 101.232 97.5068 102.926 95.2788 103.491C94.5504 103.665 93.6078 103.925 93.1365 104.056C92.6652 104.186 90.6085 104.403 88.5091 104.49C82.2963 104.838 78.9543 103.925 71.9275 100.059C67.7285 97.7128 63.1868 99.3636 61.0016 104.056C59.2449 107.792 61.173 113.048 65.0292 115.003C68.5854 116.828 70.5564 116.611 75.1838 113.7C78.6972 111.528 81.6108 110.702 86.281 110.485C92.708 110.181 97.6354 111.832 103.42 116.22C106.719 118.783 108.347 119.391 111.603 119.391C118.844 119.391 124.286 111.702 122.315 104.229C121.115 99.7112 118.073 96.7136 113.831 95.7144C109.975 94.8455 106.248 95.7578 103.42 98.321ZM91.937 98.7064L91.9329 98.7071C91.9498 98.7038 91.9522 98.7037 91.937 98.7064Z" fill="white"/>
</svg>
